<mxfile host="Electron" agent="Mozilla/5.0 (Macintosh; Intel Mac OS X 10_15_7) AppleWebKit/537.36 (KHTML, like Gecko) draw.io/28.0.6 Chrome/138.0.7204.100 Electron/37.2.3 Safari/537.36" version="28.0.6" pages="5">
  <diagram id="B7pKnhgP-cduGLh8Evfc" name="overview-diagram">
    <mxGraphModel dx="2066" dy="1219" grid="1" gridSize="10" guides="1" tooltips="1" connect="1" arrows="1" fold="1" page="1" pageScale="1" pageWidth="850" pageHeight="1100" math="0" shadow="0">
      <root>
        <mxCell id="0" />
        <mxCell id="1" parent="0" />
        <mxCell id="KlrRZow-v-VZXzuuszIt-1" style="rounded=0;orthogonalLoop=1;jettySize=auto;html=1;exitX=0.5;exitY=0;exitDx=0;exitDy=0;entryX=0.5;entryY=1;entryDx=0;entryDy=0;strokeWidth=2;fontSize=14;startArrow=classic;startFill=1;" edge="1" parent="1" source="KlrRZow-v-VZXzuuszIt-14" target="KlrRZow-v-VZXzuuszIt-8">
          <mxGeometry relative="1" as="geometry">
            <mxPoint x="397" y="600" as="sourcePoint" />
            <mxPoint x="445" y="640" as="targetPoint" />
          </mxGeometry>
        </mxCell>
        <mxCell id="KlrRZow-v-VZXzuuszIt-2" value="To get IP" style="edgeLabel;html=1;align=center;verticalAlign=middle;resizable=0;points=[];fontSize=13;" connectable="0" vertex="1" parent="KlrRZow-v-VZXzuuszIt-1">
          <mxGeometry x="0.31" relative="1" as="geometry">
            <mxPoint as="offset" />
          </mxGeometry>
        </mxCell>
        <mxCell id="KlrRZow-v-VZXzuuszIt-3" value="&lt;font style=&quot;font-size: 18px;&quot;&gt;Distributed File network&lt;/font&gt;" style="swimlane;whiteSpace=wrap;html=1;fontSize=14;strokeWidth=2;dashed=1;dashPattern=1 4;" vertex="1" parent="1">
          <mxGeometry x="81.25" y="150" width="630" height="390" as="geometry" />
        </mxCell>
        <mxCell id="KlrRZow-v-VZXzuuszIt-4" style="rounded=0;orthogonalLoop=1;jettySize=auto;html=1;exitX=1;exitY=0.5;exitDx=0;exitDy=0;entryX=0;entryY=0.5;entryDx=0;entryDy=0;dashed=1;strokeWidth=2;startArrow=classic;startFill=1;" edge="1" parent="KlrRZow-v-VZXzuuszIt-3" source="KlrRZow-v-VZXzuuszIt-5" target="KlrRZow-v-VZXzuuszIt-6">
          <mxGeometry relative="1" as="geometry" />
        </mxCell>
        <mxCell id="KlrRZow-v-VZXzuuszIt-5" value="Master Node 1" style="ellipse;whiteSpace=wrap;html=1;fontSize=14;strokeWidth=2;fillColor=#ffe6cc;strokeColor=#d79b00;" vertex="1" parent="KlrRZow-v-VZXzuuszIt-3">
          <mxGeometry x="70" y="230" width="120" height="80" as="geometry" />
        </mxCell>
        <mxCell id="KlrRZow-v-VZXzuuszIt-6" value="Data Node 4" style="ellipse;whiteSpace=wrap;html=1;fontSize=14;strokeWidth=2;fillColor=#fff2cc;strokeColor=#d6b656;" vertex="1" parent="KlrRZow-v-VZXzuuszIt-3">
          <mxGeometry x="480" y="200" width="120" height="80" as="geometry" />
        </mxCell>
        <mxCell id="KlrRZow-v-VZXzuuszIt-7" value="Data Node 1" style="ellipse;whiteSpace=wrap;html=1;fontSize=14;strokeWidth=2;fillColor=#fff2cc;strokeColor=#d6b656;" vertex="1" parent="KlrRZow-v-VZXzuuszIt-3">
          <mxGeometry x="70" y="40" width="120" height="80" as="geometry" />
        </mxCell>
        <mxCell id="KlrRZow-v-VZXzuuszIt-8" value="DNS" style="shape=hexagon;perimeter=hexagonPerimeter2;whiteSpace=wrap;html=1;fixedSize=1;strokeWidth=2;fontSize=14;fillColor=#e1d5e7;strokeColor=#9673a6;" vertex="1" parent="KlrRZow-v-VZXzuuszIt-3">
          <mxGeometry x="238.75" y="300" width="152.5" height="90" as="geometry" />
        </mxCell>
        <mxCell id="KlrRZow-v-VZXzuuszIt-9" value="Master Node 2&lt;div&gt;(backup)&lt;/div&gt;" style="ellipse;whiteSpace=wrap;html=1;fontSize=14;strokeWidth=2;fillColor=#ffe6cc;strokeColor=#d79b00;" vertex="1" parent="KlrRZow-v-VZXzuuszIt-3">
          <mxGeometry x="430" y="50" width="120" height="80" as="geometry" />
        </mxCell>
        <mxCell id="KlrRZow-v-VZXzuuszIt-10" style="rounded=0;orthogonalLoop=1;jettySize=auto;html=1;exitX=0.5;exitY=0;exitDx=0;exitDy=0;entryX=0.5;entryY=1;entryDx=0;entryDy=0;startArrow=classic;startFill=1;dashed=1;strokeWidth=2;" edge="1" parent="KlrRZow-v-VZXzuuszIt-3" source="KlrRZow-v-VZXzuuszIt-5" target="KlrRZow-v-VZXzuuszIt-7">
          <mxGeometry relative="1" as="geometry">
            <mxPoint x="346" y="320" as="sourcePoint" />
            <mxPoint x="232" y="148" as="targetPoint" />
          </mxGeometry>
        </mxCell>
        <mxCell id="KlrRZow-v-VZXzuuszIt-11" style="rounded=0;orthogonalLoop=1;jettySize=auto;html=1;exitX=0;exitY=0.5;exitDx=0;exitDy=0;entryX=1;entryY=0.5;entryDx=0;entryDy=0;startArrow=classic;startFill=1;dashed=1;strokeWidth=2;" edge="1" parent="KlrRZow-v-VZXzuuszIt-3" source="KlrRZow-v-VZXzuuszIt-9" target="KlrRZow-v-VZXzuuszIt-7">
          <mxGeometry relative="1" as="geometry">
            <mxPoint x="140" y="240" as="sourcePoint" />
            <mxPoint x="140" y="130" as="targetPoint" />
          </mxGeometry>
        </mxCell>
        <mxCell id="KlrRZow-v-VZXzuuszIt-12" style="rounded=0;orthogonalLoop=1;jettySize=auto;html=1;exitX=0.5;exitY=0;exitDx=0;exitDy=0;entryX=0.5;entryY=1;entryDx=0;entryDy=0;startArrow=classic;startFill=1;dashed=1;strokeWidth=2;" edge="1" parent="KlrRZow-v-VZXzuuszIt-3" source="KlrRZow-v-VZXzuuszIt-6" target="KlrRZow-v-VZXzuuszIt-9">
          <mxGeometry relative="1" as="geometry">
            <mxPoint x="150" y="250" as="sourcePoint" />
            <mxPoint x="150" y="140" as="targetPoint" />
          </mxGeometry>
        </mxCell>
        <mxCell id="KlrRZow-v-VZXzuuszIt-13" style="rounded=0;orthogonalLoop=1;jettySize=auto;html=1;exitX=1;exitY=0;exitDx=0;exitDy=0;entryX=0;entryY=1;entryDx=0;entryDy=0;startArrow=classic;startFill=1;dashed=1;strokeWidth=2;" edge="1" parent="KlrRZow-v-VZXzuuszIt-3" source="KlrRZow-v-VZXzuuszIt-5" target="KlrRZow-v-VZXzuuszIt-9">
          <mxGeometry relative="1" as="geometry">
            <mxPoint x="160" y="260" as="sourcePoint" />
            <mxPoint x="160" y="150" as="targetPoint" />
          </mxGeometry>
        </mxCell>
        <mxCell id="KlrRZow-v-VZXzuuszIt-14" value="" style="shape=actor;whiteSpace=wrap;html=1;fontSize=14;strokeWidth=2;" vertex="1" parent="1">
          <mxGeometry x="361.25" y="640" width="70" height="110" as="geometry" />
        </mxCell>
        <mxCell id="KlrRZow-v-VZXzuuszIt-15" value="User" style="text;html=1;align=center;verticalAlign=middle;whiteSpace=wrap;rounded=0;fontSize=14;strokeWidth=2;" vertex="1" parent="1">
          <mxGeometry x="366.25" y="770" width="60" height="30" as="geometry" />
        </mxCell>
        <mxCell id="KlrRZow-v-VZXzuuszIt-16" style="rounded=0;orthogonalLoop=1;jettySize=auto;html=1;exitX=0;exitY=1;exitDx=0;exitDy=0;entryX=0.5;entryY=0;entryDx=0;entryDy=0;startArrow=classic;startFill=1;strokeWidth=2;" edge="1" parent="1" source="KlrRZow-v-VZXzuuszIt-6" target="KlrRZow-v-VZXzuuszIt-14">
          <mxGeometry relative="1" as="geometry" />
        </mxCell>
        <mxCell id="KlrRZow-v-VZXzuuszIt-17" value="To read/write file" style="edgeLabel;html=1;align=center;verticalAlign=middle;resizable=0;points=[];fontSize=13;" connectable="0" vertex="1" parent="KlrRZow-v-VZXzuuszIt-16">
          <mxGeometry x="0.0029" y="-1" relative="1" as="geometry">
            <mxPoint x="21" y="-20" as="offset" />
          </mxGeometry>
        </mxCell>
        <mxCell id="KlrRZow-v-VZXzuuszIt-18" style="rounded=0;orthogonalLoop=1;jettySize=auto;html=1;exitX=0.5;exitY=0;exitDx=0;exitDy=0;entryX=0.5;entryY=1;entryDx=0;entryDy=0;strokeWidth=2;fontSize=14;startArrow=classic;startFill=1;" edge="1" parent="1" source="KlrRZow-v-VZXzuuszIt-14" target="KlrRZow-v-VZXzuuszIt-5">
          <mxGeometry relative="1" as="geometry">
            <mxPoint x="406" y="660" as="sourcePoint" />
            <mxPoint x="406" y="550" as="targetPoint" />
          </mxGeometry>
        </mxCell>
        <mxCell id="KlrRZow-v-VZXzuuszIt-19" value="To get metadata" style="edgeLabel;html=1;align=center;verticalAlign=middle;resizable=0;points=[];fontSize=13;" connectable="0" vertex="1" parent="KlrRZow-v-VZXzuuszIt-18">
          <mxGeometry x="0.31" relative="1" as="geometry">
            <mxPoint as="offset" />
          </mxGeometry>
        </mxCell>
      </root>
    </mxGraphModel>
  </diagram>
  <diagram id="kVmLFlOqIVdr84iXKPPV" name="components">
    <mxGraphModel dx="1234" dy="883" grid="1" gridSize="10" guides="1" tooltips="1" connect="1" arrows="1" fold="1" page="1" pageScale="1" pageWidth="1169" pageHeight="827" math="0" shadow="0">
      <root>
        <mxCell id="0" />
        <mxCell id="1" parent="0" />
        <mxCell id="fplodzAgP4jeERaur0y1-1" value="&lt;font style=&quot;font-size: 18px;&quot;&gt;Node&lt;/font&gt;" style="swimlane;whiteSpace=wrap;html=1;strokeWidth=3;fontSize=14;startSize=30;" parent="1" vertex="1">
          <mxGeometry x="320" y="60" width="470" height="280" as="geometry" />
        </mxCell>
        <mxCell id="fplodzAgP4jeERaur0y1-2" value="Thread:Receiver" style="rounded=1;whiteSpace=wrap;html=1;strokeWidth=3;fontSize=14;" parent="fplodzAgP4jeERaur0y1-1" vertex="1">
          <mxGeometry x="32.5" y="80" width="135" height="60" as="geometry" />
        </mxCell>
        <mxCell id="fplodzAgP4jeERaur0y1-3" value="Thread:Processor" style="rounded=1;whiteSpace=wrap;html=1;strokeWidth=3;fontSize=14;" parent="fplodzAgP4jeERaur0y1-1" vertex="1">
          <mxGeometry x="32.5" y="160" width="135" height="60" as="geometry" />
        </mxCell>
        <mxCell id="fplodzAgP4jeERaur0y1-4" value="Thread:Sender" style="rounded=1;whiteSpace=wrap;html=1;strokeWidth=3;fontSize=14;" parent="fplodzAgP4jeERaur0y1-1" vertex="1">
          <mxGeometry x="302.5" y="80" width="135" height="60" as="geometry" />
        </mxCell>
        <mxCell id="7OpQaIbxCUvOfZ9HxVfu-5" style="edgeStyle=orthogonalEdgeStyle;rounded=0;orthogonalLoop=1;jettySize=auto;html=1;exitX=0.5;exitY=0;exitDx=0;exitDy=0;entryX=0;entryY=0.5;entryDx=0;entryDy=0;endArrow=block;endFill=0;strokeWidth=3;" parent="1" source="7OpQaIbxCUvOfZ9HxVfu-1" target="fplodzAgP4jeERaur0y1-1" edge="1">
          <mxGeometry relative="1" as="geometry" />
        </mxCell>
        <mxCell id="7OpQaIbxCUvOfZ9HxVfu-1" value="&lt;font style=&quot;font-size: 18px;&quot;&gt;DNS&lt;/font&gt;" style="swimlane;whiteSpace=wrap;html=1;strokeWidth=3;fontSize=14;startSize=30;" parent="1" vertex="1">
          <mxGeometry x="60" y="430" width="180" height="130" as="geometry" />
        </mxCell>
        <mxCell id="7OpQaIbxCUvOfZ9HxVfu-7" style="edgeStyle=orthogonalEdgeStyle;rounded=0;orthogonalLoop=1;jettySize=auto;html=1;exitX=0.5;exitY=0;exitDx=0;exitDy=0;entryX=0.25;entryY=1;entryDx=0;entryDy=0;strokeWidth=3;" parent="1" source="7OpQaIbxCUvOfZ9HxVfu-6" target="fplodzAgP4jeERaur0y1-1" edge="1">
          <mxGeometry relative="1" as="geometry" />
        </mxCell>
        <mxCell id="7OpQaIbxCUvOfZ9HxVfu-6" value="&lt;font style=&quot;font-size: 18px;&quot;&gt;Master&lt;/font&gt;" style="swimlane;whiteSpace=wrap;html=1;strokeWidth=3;fontSize=14;startSize=30;" parent="1" vertex="1">
          <mxGeometry x="340" y="430" width="180" height="130" as="geometry" />
        </mxCell>
        <mxCell id="7OpQaIbxCUvOfZ9HxVfu-9" style="edgeStyle=orthogonalEdgeStyle;rounded=0;orthogonalLoop=1;jettySize=auto;html=1;exitX=0.5;exitY=0;exitDx=0;exitDy=0;entryX=0.75;entryY=1;entryDx=0;entryDy=0;strokeWidth=3;" parent="1" source="7OpQaIbxCUvOfZ9HxVfu-8" target="fplodzAgP4jeERaur0y1-1" edge="1">
          <mxGeometry relative="1" as="geometry" />
        </mxCell>
        <mxCell id="7OpQaIbxCUvOfZ9HxVfu-8" value="&lt;font style=&quot;font-size: 18px;&quot;&gt;Master&lt;/font&gt;" style="swimlane;whiteSpace=wrap;html=1;strokeWidth=3;fontSize=14;startSize=30;" parent="1" vertex="1">
          <mxGeometry x="600" y="430" width="180" height="130" as="geometry" />
        </mxCell>
        <mxCell id="7OpQaIbxCUvOfZ9HxVfu-11" style="edgeStyle=orthogonalEdgeStyle;rounded=0;orthogonalLoop=1;jettySize=auto;html=1;exitX=0.5;exitY=0;exitDx=0;exitDy=0;entryX=1;entryY=0.5;entryDx=0;entryDy=0;strokeWidth=3;" parent="1" source="7OpQaIbxCUvOfZ9HxVfu-10" target="fplodzAgP4jeERaur0y1-1" edge="1">
          <mxGeometry relative="1" as="geometry" />
        </mxCell>
        <mxCell id="7OpQaIbxCUvOfZ9HxVfu-10" value="&lt;font style=&quot;font-size: 18px;&quot;&gt;Client&lt;/font&gt;" style="swimlane;whiteSpace=wrap;html=1;strokeWidth=3;fontSize=14;startSize=30;" parent="1" vertex="1">
          <mxGeometry x="880" y="430" width="180" height="130" as="geometry" />
        </mxCell>
      </root>
    </mxGraphModel>
  </diagram>
  <diagram id="e0zPwfYO4tUEodr3xDdO" name="system-states">
    <mxGraphModel dx="1028" dy="736" grid="1" gridSize="10" guides="1" tooltips="1" connect="1" arrows="1" fold="1" page="1" pageScale="1" pageWidth="1169" pageHeight="827" math="0" shadow="0">
      <root>
        <mxCell id="0" />
        <mxCell id="1" parent="0" />
        <mxCell id="FUqx_vbijaud-uFWcd24-5" style="shape=connector;rounded=1;orthogonalLoop=1;jettySize=auto;html=1;exitX=1;exitY=0;exitDx=0;exitDy=0;entryX=0;entryY=1;entryDx=0;entryDy=0;strokeColor=default;strokeWidth=2;align=center;verticalAlign=middle;fontFamily=Helvetica;fontSize=11;fontColor=default;labelBackgroundColor=default;endArrow=classic;" edge="1" parent="1" source="IGyar5_TVm7ptGm5PdNQ-2" target="IGyar5_TVm7ptGm5PdNQ-3">
          <mxGeometry relative="1" as="geometry" />
        </mxCell>
        <mxCell id="FUqx_vbijaud-uFWcd24-8" value="&lt;b&gt;&lt;font style=&quot;font-size: 25px;&quot;&gt;A&lt;/font&gt;&lt;/b&gt;" style="edgeLabel;html=1;align=center;verticalAlign=middle;resizable=0;points=[];fontFamily=Helvetica;fontSize=11;fontColor=default;labelBackgroundColor=default;" vertex="1" connectable="0" parent="FUqx_vbijaud-uFWcd24-5">
          <mxGeometry x="-0.297" y="2" relative="1" as="geometry">
            <mxPoint as="offset" />
          </mxGeometry>
        </mxCell>
        <mxCell id="FUqx_vbijaud-uFWcd24-11" style="edgeStyle=none;shape=connector;rounded=1;orthogonalLoop=1;jettySize=auto;html=1;exitX=0;exitY=1;exitDx=0;exitDy=0;strokeColor=default;strokeWidth=2;align=center;verticalAlign=middle;fontFamily=Helvetica;fontSize=11;fontColor=default;labelBackgroundColor=default;endArrow=classic;entryX=1;entryY=0;entryDx=0;entryDy=0;" edge="1" parent="1" source="IGyar5_TVm7ptGm5PdNQ-2" target="FUqx_vbijaud-uFWcd24-1">
          <mxGeometry relative="1" as="geometry" />
        </mxCell>
        <mxCell id="oJm_TuYa0osKziSgXgAJ-4" value="&lt;span style=&quot;font-size: 25px;&quot;&gt;&lt;b&gt;E&lt;/b&gt;&lt;/span&gt;" style="edgeLabel;html=1;align=center;verticalAlign=middle;resizable=0;points=[];fontFamily=Helvetica;fontSize=11;fontColor=default;labelBackgroundColor=default;" vertex="1" connectable="0" parent="FUqx_vbijaud-uFWcd24-11">
          <mxGeometry x="-0.005" y="2" relative="1" as="geometry">
            <mxPoint as="offset" />
          </mxGeometry>
        </mxCell>
        <mxCell id="oJm_TuYa0osKziSgXgAJ-2" value="&lt;b style=&quot;font-size: 25px;&quot;&gt;C&lt;/b&gt;" style="edgeStyle=none;shape=connector;rounded=1;orthogonalLoop=1;jettySize=auto;html=1;exitX=1;exitY=1;exitDx=0;exitDy=0;entryX=0;entryY=0;entryDx=0;entryDy=0;strokeColor=default;strokeWidth=2;align=center;verticalAlign=middle;fontFamily=Helvetica;fontSize=11;fontColor=default;labelBackgroundColor=default;endArrow=classic;" edge="1" parent="1" source="IGyar5_TVm7ptGm5PdNQ-2" target="IGyar5_TVm7ptGm5PdNQ-4">
          <mxGeometry relative="1" as="geometry" />
        </mxCell>
        <mxCell id="IGyar5_TVm7ptGm5PdNQ-2" value="&lt;font style=&quot;font-size: 16px;&quot;&gt;OPERATING&lt;/font&gt;" style="ellipse;whiteSpace=wrap;html=1;aspect=fixed;strokeWidth=2;" vertex="1" parent="1">
          <mxGeometry x="300" y="420" width="180" height="180" as="geometry" />
        </mxCell>
        <mxCell id="FUqx_vbijaud-uFWcd24-9" style="edgeStyle=none;shape=connector;rounded=1;orthogonalLoop=1;jettySize=auto;html=1;exitX=0;exitY=0.5;exitDx=0;exitDy=0;entryX=1;entryY=0.5;entryDx=0;entryDy=0;strokeColor=default;strokeWidth=2;align=center;verticalAlign=middle;fontFamily=Helvetica;fontSize=11;fontColor=default;labelBackgroundColor=default;endArrow=classic;" edge="1" parent="1" source="IGyar5_TVm7ptGm5PdNQ-3" target="FUqx_vbijaud-uFWcd24-3">
          <mxGeometry relative="1" as="geometry" />
        </mxCell>
        <mxCell id="FUqx_vbijaud-uFWcd24-15" value="&lt;b style=&quot;font-size: 25px;&quot;&gt;B&lt;/b&gt;" style="edgeLabel;html=1;align=center;verticalAlign=middle;resizable=0;points=[];fontFamily=Helvetica;fontSize=11;fontColor=default;labelBackgroundColor=default;" vertex="1" connectable="0" parent="FUqx_vbijaud-uFWcd24-9">
          <mxGeometry x="0.1009" y="2" relative="1" as="geometry">
            <mxPoint as="offset" />
          </mxGeometry>
        </mxCell>
        <mxCell id="IGyar5_TVm7ptGm5PdNQ-3" value="&lt;font style=&quot;font-size: 16px;&quot;&gt;FAULT TOLERANCE MASTER&lt;/font&gt;" style="ellipse;whiteSpace=wrap;html=1;aspect=fixed;strokeWidth=2;" vertex="1" parent="1">
          <mxGeometry x="585" y="190" width="180" height="180" as="geometry" />
        </mxCell>
        <mxCell id="FUqx_vbijaud-uFWcd24-6" style="edgeStyle=none;shape=connector;rounded=1;orthogonalLoop=1;jettySize=auto;html=1;exitX=0;exitY=0.5;exitDx=0;exitDy=0;entryX=1;entryY=0.5;entryDx=0;entryDy=0;strokeColor=default;strokeWidth=2;align=center;verticalAlign=middle;fontFamily=Helvetica;fontSize=11;fontColor=default;labelBackgroundColor=default;endArrow=classic;" edge="1" parent="1" source="IGyar5_TVm7ptGm5PdNQ-4" target="FUqx_vbijaud-uFWcd24-1">
          <mxGeometry relative="1" as="geometry" />
        </mxCell>
        <mxCell id="oJm_TuYa0osKziSgXgAJ-3" value="&lt;span style=&quot;font-size: 25px;&quot;&gt;&lt;b&gt;D&lt;/b&gt;&lt;/span&gt;" style="edgeLabel;html=1;align=center;verticalAlign=middle;resizable=0;points=[];fontFamily=Helvetica;fontSize=11;fontColor=default;labelBackgroundColor=default;" vertex="1" connectable="0" parent="FUqx_vbijaud-uFWcd24-6">
          <mxGeometry x="0.0279" y="-1" relative="1" as="geometry">
            <mxPoint as="offset" />
          </mxGeometry>
        </mxCell>
        <mxCell id="IGyar5_TVm7ptGm5PdNQ-4" value="&lt;font style=&quot;font-size: 16px;&quot;&gt;FAULT TOLERANCE DATA&lt;/font&gt;" style="ellipse;whiteSpace=wrap;html=1;aspect=fixed;strokeWidth=2;" vertex="1" parent="1">
          <mxGeometry x="585" y="670" width="180" height="180" as="geometry" />
        </mxCell>
        <mxCell id="FUqx_vbijaud-uFWcd24-12" style="edgeStyle=none;shape=connector;rounded=1;orthogonalLoop=1;jettySize=auto;html=1;exitX=0.5;exitY=0;exitDx=0;exitDy=0;strokeColor=default;strokeWidth=2;align=center;verticalAlign=middle;fontFamily=Helvetica;fontSize=11;fontColor=default;labelBackgroundColor=default;endArrow=classic;entryX=0;entryY=0.5;entryDx=0;entryDy=0;" edge="1" parent="1" source="FUqx_vbijaud-uFWcd24-1" target="IGyar5_TVm7ptGm5PdNQ-2">
          <mxGeometry relative="1" as="geometry" />
        </mxCell>
        <mxCell id="FUqx_vbijaud-uFWcd24-1" value="&lt;font style=&quot;font-size: 16px;&quot;&gt;REPLICATION&lt;/font&gt;" style="ellipse;whiteSpace=wrap;html=1;aspect=fixed;strokeWidth=2;" vertex="1" parent="1">
          <mxGeometry y="670" width="180" height="180" as="geometry" />
        </mxCell>
        <mxCell id="FUqx_vbijaud-uFWcd24-10" style="edgeStyle=none;shape=connector;rounded=1;orthogonalLoop=1;jettySize=auto;html=1;exitX=1;exitY=1;exitDx=0;exitDy=0;entryX=0;entryY=0;entryDx=0;entryDy=0;strokeColor=default;strokeWidth=2;align=center;verticalAlign=middle;fontFamily=Helvetica;fontSize=11;fontColor=default;labelBackgroundColor=default;endArrow=classic;" edge="1" parent="1" source="FUqx_vbijaud-uFWcd24-3" target="IGyar5_TVm7ptGm5PdNQ-2">
          <mxGeometry relative="1" as="geometry" />
        </mxCell>
        <mxCell id="FUqx_vbijaud-uFWcd24-3" value="&lt;span style=&quot;font-size: 16px;&quot;&gt;STATE_SYNC&lt;/span&gt;" style="ellipse;whiteSpace=wrap;html=1;aspect=fixed;strokeWidth=2;" vertex="1" parent="1">
          <mxGeometry y="190" width="180" height="180" as="geometry" />
        </mxCell>
        <mxCell id="FUqx_vbijaud-uFWcd24-16" value="&lt;h1 style=&quot;margin-top: 0px;&quot;&gt;System state machine&lt;/h1&gt;&lt;p&gt;A: When a data node detects DISCONNECT state from Master node&lt;/p&gt;&lt;p&gt;B: After Leader election finishes in FAULT TOLERANCE MASTER&amp;nbsp;&lt;/p&gt;&lt;p&gt;C: When Master detects DISCONNECT state from a Data node&lt;/p&gt;&lt;p&gt;D: After Data node cleaning is finished&lt;/p&gt;" style="text;html=1;whiteSpace=wrap;overflow=hidden;rounded=0;fontFamily=Helvetica;fontSize=11;fontColor=default;labelBackgroundColor=default;" vertex="1" parent="1">
          <mxGeometry width="390" height="130" as="geometry" />
        </mxCell>
      </root>
    </mxGraphModel>
  </diagram>
  <diagram name="node-states" id="2pxelpx0k0Cia-Uo8Ha1">
    <mxGraphModel dx="2020" dy="609" grid="1" gridSize="10" guides="1" tooltips="1" connect="1" arrows="1" fold="1" page="1" pageScale="1" pageWidth="1169" pageHeight="827" math="0" shadow="0">
      <root>
        <mxCell id="2M_GniauGNQoVQGZj6f2-0" />
        <mxCell id="2M_GniauGNQoVQGZj6f2-1" parent="2M_GniauGNQoVQGZj6f2-0" />
        <mxCell id="2M_GniauGNQoVQGZj6f2-2" style="shape=connector;rounded=1;orthogonalLoop=1;jettySize=auto;html=1;exitX=1;exitY=0;exitDx=0;exitDy=0;entryX=0;entryY=1;entryDx=0;entryDy=0;strokeColor=default;strokeWidth=2;align=center;verticalAlign=middle;fontFamily=Helvetica;fontSize=11;fontColor=default;labelBackgroundColor=default;endArrow=classic;" edge="1" parent="2M_GniauGNQoVQGZj6f2-1" source="2M_GniauGNQoVQGZj6f2-5" target="2M_GniauGNQoVQGZj6f2-10">
          <mxGeometry relative="1" as="geometry" />
        </mxCell>
        <mxCell id="2M_GniauGNQoVQGZj6f2-3" value="&lt;b&gt;&lt;font style=&quot;font-size: 25px;&quot;&gt;A&lt;/font&gt;&lt;/b&gt;" style="edgeLabel;html=1;align=center;verticalAlign=middle;resizable=0;points=[];fontFamily=Helvetica;fontSize=11;fontColor=default;labelBackgroundColor=default;" vertex="1" connectable="0" parent="2M_GniauGNQoVQGZj6f2-2">
          <mxGeometry x="-0.297" y="2" relative="1" as="geometry">
            <mxPoint as="offset" />
          </mxGeometry>
        </mxCell>
        <mxCell id="2M_GniauGNQoVQGZj6f2-5" value="&lt;font style=&quot;font-size: 16px;&quot;&gt;DISCONNECT&lt;/font&gt;" style="ellipse;whiteSpace=wrap;html=1;aspect=fixed;strokeWidth=2;" vertex="1" parent="2M_GniauGNQoVQGZj6f2-1">
          <mxGeometry x="300" y="510" width="180" height="180" as="geometry" />
        </mxCell>
        <mxCell id="2M_GniauGNQoVQGZj6f2-8" style="edgeStyle=none;shape=connector;rounded=1;orthogonalLoop=1;jettySize=auto;html=1;exitX=0;exitY=0.5;exitDx=0;exitDy=0;entryX=1;entryY=0.5;entryDx=0;entryDy=0;strokeColor=default;strokeWidth=2;align=center;verticalAlign=middle;fontFamily=Helvetica;fontSize=11;fontColor=default;labelBackgroundColor=default;endArrow=classic;" edge="1" parent="2M_GniauGNQoVQGZj6f2-1" source="2M_GniauGNQoVQGZj6f2-10" target="2M_GniauGNQoVQGZj6f2-17">
          <mxGeometry relative="1" as="geometry" />
        </mxCell>
        <mxCell id="2M_GniauGNQoVQGZj6f2-9" value="Text" style="edgeLabel;html=1;align=center;verticalAlign=middle;resizable=0;points=[];fontFamily=Helvetica;fontSize=11;fontColor=default;labelBackgroundColor=default;" vertex="1" connectable="0" parent="2M_GniauGNQoVQGZj6f2-8">
          <mxGeometry x="0.1009" y="2" relative="1" as="geometry">
            <mxPoint as="offset" />
          </mxGeometry>
        </mxCell>
        <mxCell id="6NxksjSOwKDG8DN4PP91-0" style="edgeStyle=none;shape=connector;rounded=1;orthogonalLoop=1;jettySize=auto;html=1;exitX=0.5;exitY=1;exitDx=0;exitDy=0;entryX=1;entryY=0.5;entryDx=0;entryDy=0;strokeColor=default;strokeWidth=2;align=center;verticalAlign=middle;fontFamily=Helvetica;fontSize=11;fontColor=default;labelBackgroundColor=default;endArrow=classic;" edge="1" parent="2M_GniauGNQoVQGZj6f2-1" source="2M_GniauGNQoVQGZj6f2-10" target="2M_GniauGNQoVQGZj6f2-5">
          <mxGeometry relative="1" as="geometry" />
        </mxCell>
        <mxCell id="2M_GniauGNQoVQGZj6f2-10" value="&lt;font style=&quot;font-size: 16px;&quot;&gt;DATA&lt;/font&gt;" style="ellipse;whiteSpace=wrap;html=1;aspect=fixed;strokeWidth=2;" vertex="1" parent="2M_GniauGNQoVQGZj6f2-1">
          <mxGeometry x="585" y="240" width="180" height="180" as="geometry" />
        </mxCell>
        <mxCell id="2M_GniauGNQoVQGZj6f2-16" style="edgeStyle=none;shape=connector;rounded=1;orthogonalLoop=1;jettySize=auto;html=1;exitX=1;exitY=1;exitDx=0;exitDy=0;entryX=0;entryY=0;entryDx=0;entryDy=0;strokeColor=default;strokeWidth=2;align=center;verticalAlign=middle;fontFamily=Helvetica;fontSize=11;fontColor=default;labelBackgroundColor=default;endArrow=classic;" edge="1" parent="2M_GniauGNQoVQGZj6f2-1" source="2M_GniauGNQoVQGZj6f2-17" target="2M_GniauGNQoVQGZj6f2-5">
          <mxGeometry relative="1" as="geometry" />
        </mxCell>
        <mxCell id="2M_GniauGNQoVQGZj6f2-17" value="&lt;span style=&quot;font-size: 16px;&quot;&gt;MASTER&lt;/span&gt;" style="ellipse;whiteSpace=wrap;html=1;aspect=fixed;strokeWidth=2;" vertex="1" parent="2M_GniauGNQoVQGZj6f2-1">
          <mxGeometry y="240" width="180" height="180" as="geometry" />
        </mxCell>
        <mxCell id="2M_GniauGNQoVQGZj6f2-18" value="&lt;h1 style=&quot;margin-top: 0px;&quot;&gt;Node state machine&lt;/h1&gt;&lt;div&gt;(This diagram is applicable for Master and Data node)&lt;/div&gt;&lt;p&gt;A: When a data node detects&amp;nbsp;&lt;/p&gt;" style="text;html=1;whiteSpace=wrap;overflow=hidden;rounded=0;fontFamily=Helvetica;fontSize=11;fontColor=default;labelBackgroundColor=default;" vertex="1" parent="2M_GniauGNQoVQGZj6f2-1">
          <mxGeometry width="390" height="130" as="geometry" />
        </mxCell>
      </root>
    </mxGraphModel>
  </diagram>
  <diagram id="-32Ko1JtC0x0ujimms3Q" name="Page-5">
    <mxGraphModel dx="826" dy="488" grid="1" gridSize="10" guides="1" tooltips="1" connect="1" arrows="1" fold="1" page="1" pageScale="1" pageWidth="1169" pageHeight="827" math="0" shadow="0">
      <root>
        <mxCell id="0" />
        <mxCell id="1" parent="0" />
        <mxCell id="4M2v71MTTvjSH6_khhMJ-5" style="edgeStyle=orthogonalEdgeStyle;rounded=1;orthogonalLoop=1;jettySize=auto;html=1;exitX=0.5;exitY=0;exitDx=0;exitDy=0;entryX=0.5;entryY=0;entryDx=0;entryDy=0;fontFamily=Helvetica;fontSize=12;fontColor=default;curved=0;strokeWidth=2;" parent="1" source="4M2v71MTTvjSH6_khhMJ-1" target="4M2v71MTTvjSH6_khhMJ-2" edge="1">
          <mxGeometry relative="1" as="geometry">
            <Array as="points">
              <mxPoint x="670" y="240" />
              <mxPoint x="370" y="240" />
            </Array>
          </mxGeometry>
        </mxCell>
        <mxCell id="4M2v71MTTvjSH6_khhMJ-6" value="Send event&lt;div&gt;(Trigger RN function directly)&lt;/div&gt;" style="edgeLabel;html=1;align=center;verticalAlign=middle;resizable=0;points=[];rounded=1;strokeColor=default;strokeWidth=2;fontFamily=Helvetica;fontSize=12;fontColor=default;labelBackgroundColor=default;fillColor=default;" parent="4M2v71MTTvjSH6_khhMJ-5" vertex="1" connectable="0">
          <mxGeometry x="-0.2294" y="-3" relative="1" as="geometry">
            <mxPoint x="-46" y="1" as="offset" />
          </mxGeometry>
        </mxCell>
        <mxCell id="4SfX84JP-CUvAvUzX7Tv-3" style="edgeStyle=orthogonalEdgeStyle;rounded=1;orthogonalLoop=1;jettySize=auto;html=1;exitX=1;exitY=0.5;exitDx=0;exitDy=0;entryX=0;entryY=0.5;entryDx=0;entryDy=0;curved=0;strokeWidth=2;" edge="1" parent="1" source="4M2v71MTTvjSH6_khhMJ-1" target="4M2v71MTTvjSH6_khhMJ-3">
          <mxGeometry relative="1" as="geometry" />
        </mxCell>
        <mxCell id="4SfX84JP-CUvAvUzX7Tv-4" value="Start/stop DFS node" style="edgeLabel;html=1;align=center;verticalAlign=middle;resizable=0;points=[];" vertex="1" connectable="0" parent="4SfX84JP-CUvAvUzX7Tv-3">
          <mxGeometry x="0.1714" y="1" relative="1" as="geometry">
            <mxPoint x="-12" y="-9" as="offset" />
          </mxGeometry>
        </mxCell>
        <mxCell id="4M2v71MTTvjSH6_khhMJ-1" value="Kotlin" style="rounded=1;whiteSpace=wrap;html=1;strokeWidth=2;" parent="1" vertex="1">
          <mxGeometry x="610" y="320" width="120" height="60" as="geometry" />
        </mxCell>
        <mxCell id="4SfX84JP-CUvAvUzX7Tv-1" style="edgeStyle=orthogonalEdgeStyle;rounded=0;orthogonalLoop=1;jettySize=auto;html=1;exitX=1;exitY=0.5;exitDx=0;exitDy=0;entryX=0;entryY=0.5;entryDx=0;entryDy=0;strokeWidth=2;" edge="1" parent="1" source="4M2v71MTTvjSH6_khhMJ-2" target="4M2v71MTTvjSH6_khhMJ-1">
          <mxGeometry relative="1" as="geometry">
            <mxPoint x="530" y="350" as="targetPoint" />
          </mxGeometry>
        </mxCell>
        <mxCell id="4SfX84JP-CUvAvUzX7Tv-2" value="Start/stop DFS node" style="edgeLabel;html=1;align=center;verticalAlign=middle;resizable=0;points=[];" vertex="1" connectable="0" parent="4SfX84JP-CUvAvUzX7Tv-1">
          <mxGeometry x="-0.3333" relative="1" as="geometry">
            <mxPoint x="20" y="-10" as="offset" />
          </mxGeometry>
        </mxCell>
        <mxCell id="4M2v71MTTvjSH6_khhMJ-2" value="RN" style="rounded=1;whiteSpace=wrap;html=1;strokeWidth=2;" parent="1" vertex="1">
          <mxGeometry x="310" y="320" width="120" height="60" as="geometry" />
        </mxCell>
        <mxCell id="4M2v71MTTvjSH6_khhMJ-3" value="DFS" style="rounded=1;whiteSpace=wrap;html=1;strokeWidth=2;" parent="1" vertex="1">
          <mxGeometry x="870" y="320" width="120" height="60" as="geometry" />
        </mxCell>
        <mxCell id="4M2v71MTTvjSH6_khhMJ-7" style="edgeStyle=orthogonalEdgeStyle;shape=connector;curved=0;rounded=1;orthogonalLoop=1;jettySize=auto;html=1;exitX=0;exitY=0.25;exitDx=0;exitDy=0;entryX=0;entryY=0.75;entryDx=0;entryDy=0;strokeColor=default;strokeWidth=2;align=center;verticalAlign=middle;fontFamily=Helvetica;fontSize=12;fontColor=default;labelBackgroundColor=default;endArrow=classic;" parent="1" source="4M2v71MTTvjSH6_khhMJ-2" target="4M2v71MTTvjSH6_khhMJ-2" edge="1">
          <mxGeometry relative="1" as="geometry">
            <Array as="points">
              <mxPoint x="220" y="335" />
              <mxPoint x="220" y="365" />
            </Array>
          </mxGeometry>
        </mxCell>
        <mxCell id="4M2v71MTTvjSH6_khhMJ-8" value="Display event content&lt;div&gt;into Text&lt;/div&gt;" style="edgeLabel;html=1;align=center;verticalAlign=middle;resizable=0;points=[];rounded=1;strokeColor=default;strokeWidth=2;fontFamily=Helvetica;fontSize=12;fontColor=default;labelBackgroundColor=default;fillColor=default;" parent="4M2v71MTTvjSH6_khhMJ-7" vertex="1" connectable="0">
          <mxGeometry x="-0.296" y="-1" relative="1" as="geometry">
            <mxPoint x="-52" y="-4" as="offset" />
          </mxGeometry>
        </mxCell>
      </root>
    </mxGraphModel>
  </diagram>
</mxfile>
